<?xml version="1.0" encoding="UTF-8"?>
<svg id="b" data-name="Layer_2" xmlns="http://www.w3.org/2000/svg" width="56.603" height="41.018" viewBox="0 0 56.603 41.018">
  <g id="c" data-name="Layer_1">
    <g>
      <path d="M7.346,21.425c.338,1.061.71,2.475.158,3.501-.828,1.54-2.934,1.905-4.34.905-.026-.018-.05-.038-.075-.058-.885-.699-1.494-1.682-1.899-2.713-.47-1.197-.752-2.561-.667-3.846.076-1.155.504-2.147,1.257-3.025.679-.793,1.698-1.272,2.699-1.554,3.43-.73,7.247-.396,9.679,2.572,2.002,2.443,2.313,5.93,2.571,8.936.276,3.209.181,6.618,1.374,9.659.483,1.231,1.155,2.444,2.168,3.326.858.747,1.958,1.106,3.093,1.1.97-.005,1.938-.216,2.83-.592,1.255-.53,2.462-1.255,3.56-2.197.2-.172.386-.361.578-.542l3.209-3.008c1.145-1.073,2.29-2.147,3.435-3.22l.928-.87s8.7-8.039,12.917-4.742c1.994,1.559.753,4.262-.33,5.971-.7,1.105-1.544,2.082-2.384,3.078-.887,1.052-1.839,2.078-3.016,2.819-.483.304-.998.557-1.511.808-1.495.732-3.001,1.464-4.591,1.977-1.439.464-3.399,1.028-4.878.446-1.184-.466-.223-1.243.533-1.636,1.688-.879,3.168-1.125,5.146-1.32,1.903-.188,3.876-.265,5.644.211,1.132.305,2.333.608,3.105,1.527,0,0,.71.687.652,1.482" fill="none" stroke="#252422" stroke-linecap="round" stroke-miterlimit="10" stroke-width="1.018"/>
      <path d="M43.722,40.509s-6.657-7.426-6.522-11.281c.096-2.724,2.359-4.044,4.131-5.918,2.317-2.449,3.202-5.958,5.047-8.727.069-.104.163-.296.394-.296,1.315,0,2.682.061,3.98-.261.704-.175,1.35-.514,1.991-.843.321-.165.642-.329.974-.471.345-.147.727-.188,1.054-.369.625-.347.818-.772,1.09-1.325.422-1.104.184-2.415-.047-2.869-.211-.415-.603-.919-.963-1.192-.74-.562-1.578-.908-1.638-1.938-.015-.268.008-.553.163-.774.159-.227.533-.255.776-.392.286-.161.293-.573.272-.857-.036-.51-.459-.963-.803-1.313-.658-.67-1.613-.889-2.512-1.027-2.445-.377-4.764-.064-6.759,1.474-.891.687-1.656,1.514-2.373,2.373-.266.319-1.288,2.077-1.735,2.097-1.53.068-3.083.427-4.542.859-2.808.832-4.783,1.821-6.884,3.859-1.382,1.341-2.474,2.968-3.171,4.751-.782,1.998-1.363,4.034-1.593,6.151-.252,2.318-.361,4.651-.327,6.982.03,2.046.283,4.083.565,6.112" fill="none" stroke="#252422" stroke-linecap="round" stroke-miterlimit="10" stroke-width="1.018"/>
      <path d="M55.678,11.154c-.584-.033-1.147-.127-1.716-.258-.489-.112-.92-.302-1.257-.686" fill="none" stroke="#252422" stroke-linecap="round" stroke-miterlimit="10" stroke-width=".509"/>
    </g>
  </g>
</svg>